<svg xmlns="http://www.w3.org/2000/svg" width="35" height="35"><circle fill="#EB5755" cx="17.5" cy="17.5" r="17.5"/><circle fill="#FFF" cx="17.5" cy="17.5" r="9.602"/><path fill="#EB5755" d="M18.275 22.682c-1.021-.078-1.449-.584-2.248-1.068-.439 2.305-.976 4.514-2.566 5.668-.492-3.484.72-6.1 1.283-8.876-.959-1.615.115-4.865 2.139-4.064 2.491.985-2.156 6.002.964 6.629 3.256.654 4.586-5.648 2.567-7.699-2.919-2.961-8.495-.067-7.809 4.171.167 1.036 1.238 1.35.427 2.78-1.867-.414-2.424-1.886-2.353-3.849.116-3.214 2.888-5.465 5.669-5.776 3.518-.394 6.819 1.292 7.274 4.6.514 3.732-1.587 7.775-5.347 7.484z"/></svg>