<svg xmlns="http://www.w3.org/2000/svg" width="35" height="35"><path fill="#78CDF0" d="M.07 28.453a20.26 20.26 0 0010.963 3.213c13.278 0 20.78-11.217 20.328-21.275a14.458 14.458 0 003.568-3.703c-1.281.57-2.659.955-4.105 1.125a7.167 7.167 0 003.145-3.955 14.374 14.374 0 01-4.541 1.735 7.143 7.143 0 00-5.221-2.259c-4.619 0-8.01 4.31-6.968 8.782A20.296 20.296 0 012.498 4.644C.624 7.86 1.527 12.066 4.71 14.195a7.15 7.15 0 01-3.24-.896c-.076 3.313 2.298 6.411 5.737 7.101a7.149 7.149 0 01-3.229.124 7.157 7.157 0 006.681 4.967A14.374 14.374 0 01.07 28.453z"/></svg>