<svg xmlns="http://www.w3.org/2000/svg" width="35" height="35"><g fill="#64C29E"><path d="M26.932 24.585l-6.73-6.729-2.702-2.702-7.441-7.441A5.157 5.157 0 004.549.579l3.39 3.39-.915 3.411-3.411.914-3.39-3.39a5.155 5.155 0 007.134 5.51l7.441 7.441-6.73 6.729a5.156 5.156 0 00-5.682 8.384 5.156 5.156 0 008.383-5.682l6.73-6.73 6.73 6.73a5.157 5.157 0 102.703-2.701zM8.994 32.284a4.188 4.188 0 11-5.922-5.924 4.188 4.188 0 015.922 5.924zm22.936 0a4.19 4.19 0 01-5.923-5.923 4.19 4.19 0 015.923 5.923z"/><path d="M21.543 16.514l6.1-6.1a5.159 5.159 0 007.135-5.51l-3.391 3.39-3.411-.914-.914-3.412 3.39-3.39a5.156 5.156 0 00-5.51 7.134l-6.1 6.1 2.701 2.702z"/></g></svg>