<svg xmlns="http://www.w3.org/2000/svg" width="70" height="35"><path fill="#64C29E" d="M68.396 32.59l-4.341-.875a1.394 1.394 0 01-1.093-1.154 28.25 28.25 0 00-.429-2.168c-.136-.568.08-1.16.566-1.486l3.675-2.463c.547-.371.757-1.07.508-1.672l-.808-1.953a1.375 1.375 0 00-1.536-.824l-4.352.854a1.39 1.39 0 01-1.448-.65 27.782 27.782 0 00-1.23-1.84 1.38 1.38 0 01-.049-1.587l2.456-3.69a1.37 1.37 0 00-.172-1.736L58.647 9.85a1.367 1.367 0 00-1.731-.173l-3.693 2.457a1.391 1.391 0 01-1.588-.047 29.067 29.067 0 00-1.838-1.227 1.387 1.387 0 01-.649-1.451l.854-4.349a1.372 1.372 0 00-.82-1.536l-1.955-.805a1.372 1.372 0 00-1.669.503l-2.466 3.677a1.39 1.39 0 01-1.485.566 29.412 29.412 0 00-2.17-.431 1.374 1.374 0 01-1.158-1.087l-.876-4.348A1.38 1.38 0 0036.054.494h-2.113c-.655 0-1.217.464-1.348 1.105l-.874 4.348a1.383 1.383 0 01-1.159 1.087c-.732.117-1.458.261-2.171.431a1.392 1.392 0 01-1.484-.568L24.437 3.22a1.37 1.37 0 00-1.668-.503l-1.953.805c-.607.25-.95.894-.823 1.536l.856 4.349a1.396 1.396 0 01-.65 1.451c-.628.387-1.244.794-1.838 1.227a1.383 1.383 0 01-1.589.047l-3.689-2.457a1.376 1.376 0 00-1.738.173l-1.493 1.494a1.378 1.378 0 00-.173 1.736l2.456 3.69a1.386 1.386 0 01-.048 1.587c-.433.6-.843 1.209-1.23 1.84-.302.5-.874.764-1.445.65l-4.35-.855a1.374 1.374 0 00-1.536.826l-.81 1.953a1.38 1.38 0 00.504 1.67l3.677 2.465c.483.326.701.918.564 1.486a27.833 27.833 0 00-.429 2.17 1.387 1.387 0 01-1.09 1.154l-4.345.876a1.381 1.381 0 00-1.105 1.346V35h29.735A4.776 4.776 0 0135 30.223 4.78 4.78 0 0139.775 35h29.732v-1.061a1.393 1.393 0 00-1.111-1.349zm-41.821.644H10.768a24.188 24.188 0 015.842-14.123l11.189 11.193c-.574.88-1 1.86-1.224 2.93zm6.652-6.652a8.518 8.518 0 00-2.931 1.217L19.107 16.611a24.175 24.175 0 0114.116-5.842v15.813h.004zm6.464 1.217a8.468 8.468 0 00-2.929-1.217V10.769a24.18 24.18 0 0114.118 5.842L39.691 27.799zm3.725 5.435a8.48 8.48 0 00-1.225-2.932l11.194-11.191a24.211 24.211 0 015.841 14.119h-15.81v.004z"/></svg>