<svg xmlns="http://www.w3.org/2000/svg" width="35" height="35"><g fill="#FFF" stroke="#64C29E" stroke-miterlimit="10"><path d="M29.881 23.65a5.511 5.511 0 00-4.793.292 2.223 2.223 0 01-1.882.141l-1.543-.591a2.23 2.23 0 01-1.303-1.36 5.513 5.513 0 00-3.372-3.418c-2.714-.976-5.817.377-6.95 3.033a5.534 5.534 0 003.108 7.354 5.51 5.51 0 004.691-.351 2.197 2.197 0 011.864-.13l1.54.588a2.182 2.182 0 011.3 1.345 5.536 5.536 0 0010.489 0c.93-2.74-.479-5.817-3.149-6.903zm-15.736 2.841a2.743 2.743 0 01-1.582-3.546 2.741 2.741 0 013.546-1.58 2.743 2.743 0 011.581 3.543 2.748 2.748 0 01-3.545 1.583zm12.659 4.847a2.744 2.744 0 01-1.578-3.545 2.742 2.742 0 013.542-1.582 2.746 2.746 0 011.581 3.546 2.749 2.749 0 01-3.545 1.581zm-4.832-25.4a5.52 5.52 0 00-4.788.293 2.225 2.225 0 01-1.881.141l-1.538-.588a2.237 2.237 0 01-1.309-1.364 5.51 5.51 0 00-3.364-3.415C6.37.026 3.268 1.378 2.131 4.037a5.54 5.54 0 003.112 7.352 5.52 5.52 0 004.692-.349 2.204 2.204 0 011.868-.13l1.537.589a2.183 2.183 0 011.301 1.343 5.535 5.535 0 0010.487-.001c.931-2.736-.477-5.814-3.156-6.903zM6.241 8.779a2.746 2.746 0 01-1.583-3.546 2.747 2.747 0 015.129 1.965 2.744 2.744 0 01-3.546 1.581zm12.662 4.849a2.745 2.745 0 011.96-5.126 2.744 2.744 0 01-1.96 5.126z"/><path d="M20.271 26.063a5.525 5.525 0 00-.295-4.791 2.24 2.24 0 01-.141-1.886l.591-1.537a2.233 2.233 0 011.359-1.307 5.5 5.5 0 003.417-3.367c.979-2.719-.372-5.821-3.031-6.957A5.538 5.538 0 0014.82 9.33a5.516 5.516 0 00.349 4.692c.322.57.364 1.254.13 1.862l-.59 1.541a2.183 2.183 0 01-1.342 1.297 5.552 5.552 0 00-3.395 3.266 5.536 5.536 0 003.394 7.224c2.738.932 5.82-.479 6.905-3.149zm-2.844-15.734a2.744 2.744 0 115.127 1.962 2.746 2.746 0 01-5.127-1.962zm-4.848 12.657a2.745 2.745 0 115.128 1.965 2.744 2.744 0 01-3.542 1.577 2.749 2.749 0 01-1.586-3.542z"/></g></svg>