<?xml version="1.0" encoding="utf-8"?>
<!-- Generator: Adobe Illustrator 16.0.0, SVG Export Plug-In . SVG Version: 6.00 Build 0)  -->
<!DOCTYPE svg PUBLIC "-//W3C//DTD SVG 1.1//EN" "http://www.w3.org/Graphics/SVG/1.1/DTD/svg11.dtd">
<svg version="1.1" id="Layer_1" xmlns="http://www.w3.org/2000/svg" xmlns:xlink="http://www.w3.org/1999/xlink" x="0px" y="0px"
	 width="35px" height="35px" viewBox="0 0 35 35" enable-background="new 0 0 35 35" xml:space="preserve">
<g>
	<circle fill="#78CDF0" cx="17.5" cy="17.5" r="17.5"/>
</g>
<g>
	<g id="XMLID_138_">
		<path id="XMLID_139_" fill="#FFFFFF" d="M9.103,22.776c1.525,0.978,3.336,1.548,5.282,1.548c6.396,0,10.011-5.403,9.793-10.249
			c0.674-0.485,1.258-1.092,1.719-1.784c-0.617,0.274-1.281,0.46-1.978,0.542c0.71-0.425,1.257-1.101,1.515-1.905
			c-0.666,0.395-1.404,0.682-2.188,0.836c-0.629-0.67-1.524-1.088-2.516-1.088c-2.225,0-3.858,2.076-3.356,4.23
			c-2.864-0.144-5.403-1.515-7.102-3.6c-0.903,1.549-0.468,3.575,1.066,4.601c-0.565-0.019-1.097-0.174-1.562-0.432
			c-0.037,1.597,1.107,3.089,2.764,3.422c-0.485,0.133-1.016,0.162-1.556,0.06c0.438,1.369,1.71,2.364,3.218,2.393
			C12.756,22.485,10.931,22.992,9.103,22.776z"/>
	</g>
</g>
</svg>
