<svg version="1.1" id="Layer_1" xmlns="http://www.w3.org/2000/svg" xmlns:xlink="http://www.w3.org/1999/xlink" x="0px" y="0px"
	 width="35px" height="35px" viewBox="0 0 35 35" enable-background="new 0 0 35 35" xml:space="preserve">
<g>
	<g>
		<path fill="#64C29E" d="M26.932,24.585l-6.73-6.729L17.5,15.154l-7.441-7.441c0.808-1.881,0.445-4.146-1.091-5.682
			C7.764,0.826,6.113,0.343,4.549,0.579l3.39,3.39L7.024,7.38L3.613,8.294l-3.39-3.39c-0.235,1.564,0.248,3.215,1.452,4.419
			c1.536,1.537,3.8,1.899,5.682,1.091l7.441,7.441l-6.73,6.729c-1.882-0.808-4.146-0.445-5.682,1.092
			c-2.014,2.014-2.014,5.278,0,7.292s5.279,2.014,7.292,0c1.537-1.536,1.899-3.801,1.091-5.682l6.73-6.73l6.73,6.73
			c-0.809,1.882-0.445,4.146,1.091,5.682c2.015,2.014,5.279,2.014,7.293,0s2.014-5.278,0-7.292
			C31.078,24.141,28.813,23.777,26.932,24.585z M8.994,32.284c-1.635,1.635-4.287,1.635-5.922,0c-1.635-1.636-1.636-4.287,0-5.923
			c1.635-1.635,4.287-1.635,5.922,0C10.629,27.997,10.629,30.648,8.994,32.284z M31.93,32.284c-1.637,1.635-4.287,1.635-5.923,0
			c-1.636-1.636-1.636-4.287,0-5.923c1.636-1.635,4.286-1.635,5.923,0C33.564,27.997,33.564,30.648,31.93,32.284z"/>
		<path fill="#64C29E" d="M21.543,16.514l6.1-6.1c1.882,0.808,4.146,0.445,5.683-1.091c1.204-1.204,1.688-2.855,1.452-4.419
			l-3.391,3.39L27.976,7.38l-0.914-3.412l3.39-3.39c-1.563-0.236-3.215,0.248-4.418,1.452c-1.537,1.536-1.9,3.801-1.092,5.682
			l-6.1,6.1L21.543,16.514z"/>
	</g>
</g>
</svg>
