<svg xmlns="http://www.w3.org/2000/svg" width="100" height="55"><path fill="#FFF" d="M19.788 23.701c-.017.259-.03.52-.03.781 0 6.459 5.24 11.697 11.697 11.697 5.865 0 10.716-4.317 11.562-9.948l2.391.253a3.346 3.346 0 001.93 2.868l-.602 2.278H45.61v1.39h2.964v-1.39h-.761l.526-1.994c.13.016.264.027.402.027a3.347 3.347 0 003.346-3.347 3.32 3.32 0 00-.646-1.96L62.66 11.897l.613 1.707c-3.846 2.104-6.455 6.185-6.455 10.877 0 1.721.354 3.358.986 4.846l.633-.28c1.781 4.191 5.934 7.131 10.773 7.131 6.461 0 11.695-5.237 11.695-11.697 0-5.871-4.324-10.73-9.963-11.569l.113-.686a12.485 12.485 0 00-1.846-.137c-1.654 0-3.232.327-4.676.916l-2.816-7.85-.164.059-.607-1.692c.428-.27.879-.663 1.076-1.186.172-.465.113-.959-.162-1.433-.855-1.455-5.121-.775-6.41-.532l.193 1.023c2.541-.479 5.027-.46 5.318.037.156.266.121.437.082.542-.176.474-.994.89-1.365 1.017l-.026.01.922 2.567-.164.058.602 1.674H40.927l-.405-.896c1.587-.632 3.478-1.769 3.204-2.532-.231-.63-1.442-.309-2.822-.159-.595.063-1.616.07-1.95 0-1.491-.314-2.685-.81-2.887-.29-.475 1.203 1.997 3.448 2.724 3.448.108 0 .244-.016.397-.046l.75 1.661-2.823 4.974a12.335 12.335 0 00-5.66-1.368c-6.571 0-11.944 5.117-12.362 11.582l.694.036.001-.008zm44.546-7.505l1.607 4.443 1.934 2.967a1.585 1.585 0 101.322-.71c-.174 0-.334.033-.488.084l-1.859-2.857-1.582-4.409a9.614 9.614 0 0113.558 8.768c0 5.31-4.305 9.616-9.615 9.616s-9.613-4.306-9.613-9.616a9.607 9.607 0 014.736-8.286zM41.555 8.69H61.51l.619 1.724L50.41 23.425a3.854 3.854 0 00-.323-.172l.658-2.5h1.04v-1.389H48.82v1.389h.848l-.589 2.233a3.278 3.278 0 00-1.05.063L41.555 8.69zm2.291 15.792c0-4.433-2.329-8.319-5.827-10.509l2.449-4.312 6.296 13.959a3.36 3.36 0 00-1.252 1.828l-1.694-.179c.014-.26.028-.522.028-.787zm-2.789.496l-7.8-.831a1.814 1.814 0 00-.482-.936l3.872-6.821a9.6 9.6 0 014.41 8.588zm-19.216-.496c0-5.311 4.304-9.616 9.614-9.616 1.542 0 2.996.365 4.287 1.008l-3.873 6.822a1.856 1.856 0 00-.415-.051 1.835 1.835 0 101.694 2.539l7.797.827c-.734 4.582-4.7 8.084-9.491 8.084-5.309.001-9.613-4.303-9.613-9.613zM.979 51.64c.82.42 2.081.84 3.381.84 1.4 0 2.141-.58 2.141-1.46 0-.84-.641-1.32-2.261-1.9C2 48.34.539 47.099.539 45.14c0-2.301 1.921-4.062 5.102-4.062 1.521 0 2.641.32 3.44.681l-.68 2.46c-.54-.26-1.5-.64-2.82-.64s-1.961.6-1.961 1.3c0 .86.76 1.24 2.501 1.9 2.38.881 3.5 2.121 3.5 4.021 0 2.26-1.74 4.181-5.44 4.181-1.541 0-3.061-.4-3.821-.82l.619-2.521zm13.76-10.342v5.181h5.021v-5.181h3.04V54.78h-3.04v-5.642h-5.021v5.642h-3.061V41.298h3.061zm23.063 6.6c0 4.421-2.681 7.102-6.622 7.102-4 0-6.341-3.021-6.341-6.861 0-4.041 2.58-7.062 6.562-7.062 4.14 0 6.401 3.101 6.401 6.821zm-9.742.181c0 2.641 1.24 4.501 3.28 4.501 2.061 0 3.241-1.961 3.241-4.581 0-2.421-1.16-4.501-3.261-4.501-2.06 0-3.26 1.96-3.26 4.581zm11.739-6.601c.94-.16 2.261-.28 4.121-.28 1.88 0 3.221.36 4.121 1.08.859.681 1.439 1.801 1.439 3.121s-.439 2.44-1.24 3.2c-1.04.98-2.58 1.421-4.381 1.421-.399 0-.76-.021-1.04-.061v4.821h-3.021V41.478zm3.02 6.121c.26.061.58.08 1.021.08 1.62 0 2.62-.82 2.62-2.2 0-1.24-.86-1.98-2.38-1.98-.62 0-1.041.06-1.261.12v3.98zm12.639 7.181V41.298h3.561l2.801 4.94a39.014 39.014 0 012.2 4.621h.061c-.2-1.78-.261-3.601-.261-5.621v-3.94h2.801V54.78h-3.2l-2.881-5.201c-.8-1.44-1.681-3.181-2.341-4.761l-.06.02c.08 1.78.12 3.681.12 5.882v4.061h-2.801zm26.143-6.882c0 4.421-2.681 7.102-6.622 7.102-4 0-6.341-3.021-6.341-6.861 0-4.041 2.58-7.062 6.562-7.062 4.14 0 6.401 3.101 6.401 6.821zm-9.743.181c0 2.641 1.24 4.501 3.28 4.501 2.061 0 3.241-1.961 3.241-4.581 0-2.421-1.16-4.501-3.261-4.501-2.059 0-3.26 1.96-3.26 4.581zm13.781 6.701l-3.201-13.482h3.261l1.021 5.561c.3 1.601.58 3.341.8 4.701h.04c.221-1.46.54-3.081.881-4.741l1.14-5.521h3.241l1.08 5.681c.3 1.58.52 3.021.72 4.521h.04c.2-1.501.5-3.081.78-4.682l1.101-5.521h3.101l-3.48 13.482H92.86l-1.141-5.801c-.26-1.36-.48-2.621-.64-4.161h-.04c-.24 1.521-.461 2.801-.78 4.161l-1.28 5.801h-3.34z"/></svg>