<svg xmlns="http://www.w3.org/2000/svg" width="35" height="35"><circle fill="#78CDF0" cx="17.5" cy="17.5" r="17.5"/><path fill="#FFF" d="M9.103 22.776a9.75 9.75 0 005.282 1.548c6.396 0 10.011-5.403 9.793-10.249a6.944 6.944 0 001.719-1.784 6.834 6.834 0 01-1.978.542 3.46 3.46 0 001.515-1.905 6.893 6.893 0 01-2.188.836 3.441 3.441 0 00-2.516-1.088c-2.225 0-3.858 2.076-3.356 4.23a9.78 9.78 0 01-7.102-3.6 3.45 3.45 0 001.066 4.601 3.454 3.454 0 01-1.562-.432c-.037 1.597 1.107 3.089 2.764 3.422a3.454 3.454 0 01-1.556.06 3.449 3.449 0 003.218 2.393 6.919 6.919 0 01-5.099 1.426z"/></svg>