<svg version="1.1" id="Layer_1" xmlns="http://www.w3.org/2000/svg" xmlns:xlink="http://www.w3.org/1999/xlink" x="0px" y="0px"
	 width="94px" height="85px" viewBox="0 0 94 85" enable-background="new 0 0 94 85" xml:space="preserve">
<g>
	<path fill="#64C29E" d="M49.723,50.729c-0.285-0.285-0.556-0.57-0.945-0.99c-0.869,0.811-1.844,1.154-2.954,1.154
		c-1.965,0-3.104-1.32-3.104-2.834c0-1.381,0.825-2.324,1.979-2.953v-0.045c-0.524-0.658-0.84-1.395-0.84-2.113
		c0-1.229,0.885-2.49,2.565-2.49c1.261,0,2.234,0.84,2.234,2.144c0,1.064-0.615,1.903-2.22,2.697v0.045
		c0.854,0.988,1.815,2.1,2.459,2.818c0.465-0.705,0.779-1.68,0.976-2.953h1.198c-0.27,1.589-0.704,2.85-1.454,3.732
		c0.541,0.57,1.065,1.142,1.666,1.785h-1.56V50.729z M48.132,48.988c-0.6-0.66-1.724-1.891-2.85-3.18
		c-0.54,0.344-1.305,0.988-1.305,2.055c0,1.154,0.855,2.039,2.07,2.039C46.918,49.902,47.65,49.514,48.132,48.988z M45.058,42.827
		c0,0.72,0.33,1.274,0.765,1.813c1.021-0.584,1.681-1.123,1.681-1.979c0-0.614-0.345-1.304-1.17-1.304
		C45.492,41.357,45.058,42.047,45.058,42.827z"/>
</g>
<line fill="none" stroke="#64C29E" stroke-miterlimit="10" x1="7.659" y1="6.827" x2="39.234" y2="38.402"/>
<line fill="none" stroke="#64C29E" stroke-miterlimit="10" x1="86.134" y1="6.827" x2="54.604" y2="38.402"/>
<line fill="none" stroke="#64C29E" stroke-miterlimit="10" x1="7.659" y1="84.646" x2="39.234" y2="53.116"/>
<line fill="none" stroke="#64C29E" stroke-miterlimit="10" x1="86.134" y1="84.646" x2="54.604" y2="53.116"/>
<g>
	<path fill="#64C29E" d="M4.8,49.775l-2.1,6.359H0l6.87-20.214h3.15l6.9,20.214h-2.79l-2.16-6.359H4.8z M11.43,47.735l-1.98-5.814
		C9,40.601,8.7,39.4,8.399,38.23H8.34c-0.3,1.2-0.63,2.43-1.02,3.66l-1.98,5.845H11.43z"/>
</g>
<g>
	<path fill="#64C29E" d="M77.41,36.175c1.59-0.24,3.48-0.42,5.55-0.42c3.75,0,6.42,0.87,8.19,2.52c1.799,1.65,2.85,3.99,2.85,7.257
		c0,3.298-1.021,5.997-2.91,7.858c-1.891,1.889-5.01,2.91-8.939,2.91c-1.86,0-3.42-0.092-4.74-0.24V36.175z M80.02,54.051
		c0.66,0.119,1.621,0.148,2.641,0.148c5.58,0,8.609-3.119,8.609-8.577c0.03-4.767-2.67-7.797-8.189-7.797
		c-1.35,0-2.37,0.12-3.061,0.27V54.051z"/>
</g>
<g>
	<path fill="#64C29E" d="M56.24,10.23c0,6.959-4.23,10.649-9.391,10.649c-5.34,0-9.09-4.14-9.09-10.26C37.76,4.2,41.75,0,47.149,0
		C52.67,0,56.24,4.23,56.24,10.23z M40.55,10.56c0,4.32,2.34,8.19,6.449,8.19c4.141,0,6.48-3.81,6.48-8.4
		c0-4.02-2.101-8.22-6.45-8.22C42.71,2.13,40.55,6.12,40.55,10.56z"/>
</g>
<g>
	<path fill="#64C29E" d="M37.342,73.566h-0.021l-1.129,0.608l-0.17-0.669l1.419-0.758h0.75v6.491h-0.85V73.566z"/>
	<path fill="#64C29E" d="M44.88,75.922c0,2.208-0.819,3.428-2.259,3.428c-1.27,0-2.129-1.189-2.149-3.338
		c0-2.176,0.939-3.374,2.259-3.374C44.101,72.638,44.88,73.856,44.88,75.922z M41.352,76.022c0,1.688,0.52,2.647,1.319,2.647
		c0.899,0,1.329-1.05,1.329-2.708c0-1.597-0.409-2.645-1.319-2.645C41.911,73.317,41.352,74.255,41.352,76.022z"/>
	<path fill="#64C29E" d="M50.01,75.922c0,2.208-0.819,3.428-2.259,3.428c-1.27,0-2.129-1.189-2.149-3.338
		c0-2.176,0.939-3.374,2.259-3.374C49.23,72.638,50.01,73.856,50.01,75.922z M46.481,76.022c0,1.688,0.52,2.647,1.319,2.647
		c0.899,0,1.329-1.05,1.329-2.708c0-1.597-0.409-2.645-1.319-2.645C47.041,73.317,46.481,74.255,46.481,76.022z"/>
	<path fill="#64C29E" d="M53.75,74.575c0,1.367-0.72,2.046-1.559,2.046c-0.81,0-1.51-0.649-1.52-1.956
		c0-1.299,0.71-2.027,1.569-2.027C53.15,72.638,53.75,73.336,53.75,74.575z M51.371,74.635c-0.02,0.827,0.29,1.457,0.84,1.457
		c0.58,0,0.84-0.619,0.84-1.478c0-0.788-0.23-1.447-0.84-1.447C51.661,73.167,51.371,73.816,51.371,74.635z M52.131,79.35
		l3.818-6.712h0.56L52.69,79.35H52.131z M57.978,77.261c0,1.369-0.72,2.049-1.549,2.049c-0.81,0-1.509-0.65-1.52-1.949
		c0-1.309,0.71-2.037,1.569-2.037C57.389,75.323,57.978,76.022,57.978,77.261z M55.6,77.32c-0.011,0.829,0.31,1.459,0.849,1.459
		c0.58,0,0.84-0.619,0.84-1.479c0-0.79-0.229-1.448-0.84-1.448C55.899,75.853,55.6,76.501,55.6,77.32z"/>
</g>
</svg>
