<svg xmlns="http://www.w3.org/2000/svg" width="94" height="85"><path fill="#64C29E" d="M49.723 50.729a34.42 34.42 0 01-.945-.99c-.869.811-1.844 1.154-2.954 1.154-1.965 0-3.104-1.32-3.104-2.834 0-1.381.825-2.324 1.979-2.953v-.045c-.524-.658-.84-1.395-.84-2.113 0-1.229.885-2.49 2.565-2.49 1.261 0 2.234.84 2.234 2.144 0 1.064-.615 1.903-2.22 2.697v.045c.854.988 1.815 2.1 2.459 2.818.465-.705.779-1.68.976-2.953h1.198c-.27 1.589-.704 2.85-1.454 3.732.541.57 1.065 1.142 1.666 1.785h-1.56v.003zm-1.591-1.741c-.6-.66-1.724-1.891-2.85-3.18-.54.344-1.305.988-1.305 2.055 0 1.154.855 2.039 2.07 2.039.871 0 1.603-.388 2.085-.914zm-3.074-6.161c0 .72.33 1.274.765 1.813 1.021-.584 1.681-1.123 1.681-1.979 0-.614-.345-1.304-1.17-1.304-.842 0-1.276.69-1.276 1.47z"/><path fill="none" stroke="#64C29E" stroke-miterlimit="10" d="M7.659 6.827l31.575 31.575m46.9-31.575l-31.53 31.575M7.659 84.646l31.575-31.53m46.9 31.53l-31.53-31.53"/><path fill="#64C29E" d="M4.8 49.775l-2.1 6.359H0L6.87 35.92h3.15l6.9 20.214h-2.79l-2.16-6.359H4.8zm6.63-2.04l-1.98-5.814C9 40.601 8.7 39.4 8.399 38.23H8.34c-.3 1.2-.63 2.43-1.02 3.66l-1.98 5.845h6.09zm65.98-11.56c1.59-.24 3.48-.42 5.55-.42 3.75 0 6.42.87 8.19 2.52 1.799 1.65 2.85 3.99 2.85 7.257 0 3.298-1.021 5.997-2.91 7.858-1.891 1.889-5.01 2.91-8.939 2.91-1.86 0-3.42-.092-4.74-.24V36.175zm2.61 17.876c.66.119 1.621.148 2.641.148 5.58 0 8.609-3.119 8.609-8.577.03-4.767-2.67-7.797-8.189-7.797-1.35 0-2.37.12-3.061.27v15.956zM56.24 10.23c0 6.959-4.23 10.649-9.391 10.649-5.34 0-9.09-4.14-9.09-10.26C37.76 4.2 41.75 0 47.149 0c5.521 0 9.091 4.23 9.091 10.23zm-15.69.33c0 4.32 2.34 8.19 6.449 8.19 4.141 0 6.48-3.81 6.48-8.4 0-4.02-2.101-8.22-6.45-8.22-4.319 0-6.479 3.99-6.479 8.43zm-3.208 63.006h-.021l-1.129.608-.17-.669 1.419-.758h.75v6.491h-.85v-5.672zm7.538 2.356c0 2.208-.819 3.428-2.259 3.428-1.27 0-2.129-1.189-2.149-3.338 0-2.176.939-3.374 2.259-3.374 1.37 0 2.149 1.218 2.149 3.284zm-3.528.1c0 1.688.52 2.647 1.319 2.647.899 0 1.329-1.05 1.329-2.708 0-1.597-.409-2.645-1.319-2.645-.77.001-1.329.939-1.329 2.706zm8.658-.1c0 2.208-.819 3.428-2.259 3.428-1.27 0-2.129-1.189-2.149-3.338 0-2.176.939-3.374 2.259-3.374 1.369 0 2.149 1.218 2.149 3.284zm-3.529.1c0 1.688.52 2.647 1.319 2.647.899 0 1.329-1.05 1.329-2.708 0-1.597-.409-2.645-1.319-2.645-.769.001-1.329.939-1.329 2.706zm7.269-1.447c0 1.367-.72 2.046-1.559 2.046-.81 0-1.51-.649-1.52-1.956 0-1.299.71-2.027 1.569-2.027.91 0 1.51.698 1.51 1.937zm-2.379.06c-.02.827.29 1.457.84 1.457.58 0 .84-.619.84-1.478 0-.788-.23-1.447-.84-1.447-.55 0-.84.649-.84 1.468zm.76 4.715l3.818-6.712h.56L52.69 79.35h-.559zm5.847-2.089c0 1.369-.72 2.049-1.549 2.049-.81 0-1.509-.65-1.52-1.949 0-1.309.71-2.037 1.569-2.037.911-.001 1.5.698 1.5 1.937zm-2.378.059c-.011.829.31 1.459.849 1.459.58 0 .84-.619.84-1.479 0-.79-.229-1.448-.84-1.448-.55.001-.849.649-.849 1.468z"/></svg>
