<svg version="1.1" id="Layer_1" xmlns="http://www.w3.org/2000/svg" xmlns:xlink="http://www.w3.org/1999/xlink" x="0px" y="0px"
	 width="35px" height="35px" viewBox="0 0 35 35" enable-background="new 0 0 35 35" xml:space="preserve">
<g>
	<path fill="#FFFFFF" stroke="#64C29E" stroke-miterlimit="10" d="M29.881,23.65c-1.629-0.665-3.378-0.5-4.793,0.292
		c-0.575,0.321-1.264,0.379-1.882,0.141l-1.543-0.591c-0.612-0.235-1.088-0.735-1.303-1.36c-0.526-1.535-1.716-2.826-3.372-3.418
		c-2.714-0.976-5.817,0.377-6.95,3.033c-1.243,2.903,0.179,6.232,3.108,7.354c1.601,0.611,3.31,0.431,4.691-0.351
		c0.572-0.322,1.257-0.363,1.864-0.13l1.54,0.588c0.611,0.233,1.094,0.723,1.3,1.345c0.51,1.5,1.661,2.778,3.263,3.393
		c2.925,1.12,6.211-0.402,7.226-3.393C33.96,27.813,32.551,24.736,29.881,23.65z M14.145,26.491
		c-1.419-0.543-2.126-2.132-1.582-3.546c0.539-1.415,2.126-2.124,3.546-1.58c1.412,0.539,2.124,2.126,1.581,3.543
		C17.146,26.323,15.558,27.033,14.145,26.491z M26.804,31.338c-1.415-0.543-2.12-2.13-1.578-3.545
		c0.539-1.414,2.126-2.124,3.542-1.582c1.413,0.542,2.124,2.128,1.581,3.546C29.808,31.17,28.216,31.879,26.804,31.338z"/>
	<path fill="#FFFFFF" stroke="#64C29E" stroke-miterlimit="10" d="M21.972,5.938c-1.622-0.662-3.371-0.497-4.788,0.293
		c-0.578,0.321-1.263,0.378-1.881,0.141l-1.538-0.588c-0.618-0.237-1.092-0.738-1.309-1.364c-0.523-1.531-1.712-2.822-3.364-3.415
		C6.37,0.026,3.268,1.378,2.131,4.037c-1.238,2.905,0.188,6.231,3.112,7.352C6.844,12,8.554,11.82,9.935,11.04
		c0.57-0.321,1.254-0.364,1.868-0.13l1.537,0.589c0.612,0.233,1.094,0.722,1.301,1.343c0.511,1.504,1.662,2.78,3.264,3.394
		c2.921,1.12,6.208-0.403,7.223-3.395C26.059,10.105,24.651,7.027,21.972,5.938z M6.241,8.779c-1.416-0.54-2.125-2.13-1.583-3.546
		C5.199,3.82,6.789,3.112,8.204,3.654s2.125,2.128,1.583,3.544C9.246,8.614,7.655,9.323,6.241,8.779z M18.903,13.628
		c-1.418-0.542-2.125-2.131-1.583-3.546c0.541-1.414,2.125-2.122,3.543-1.58c1.413,0.541,2.125,2.128,1.582,3.543
		C21.904,13.46,20.314,14.17,18.903,13.628z"/>
	<path fill="#FFFFFF" stroke="#64C29E" stroke-miterlimit="10" d="M20.271,26.063c0.66-1.627,0.497-3.376-0.295-4.791
		c-0.321-0.579-0.377-1.268-0.141-1.886l0.591-1.537c0.236-0.616,0.737-1.092,1.359-1.307c1.534-0.524,2.825-1.711,3.417-3.367
		c0.979-2.719-0.372-5.821-3.031-6.957C19.269,4.977,15.94,6.406,14.82,9.33c-0.612,1.599-0.431,3.31,0.349,4.692
		c0.322,0.57,0.364,1.254,0.13,1.862l-0.59,1.541c-0.234,0.609-0.721,1.091-1.342,1.297c-1.506,0.518-2.78,1.665-3.395,3.266
		c-1.119,2.925,0.403,6.208,3.394,7.224C16.104,30.144,19.186,28.733,20.271,26.063z M17.427,10.329
		c0.544-1.419,2.131-2.126,3.546-1.583c1.418,0.542,2.124,2.127,1.581,3.545c-0.541,1.416-2.127,2.123-3.542,1.581
		C17.596,13.329,16.886,11.743,17.427,10.329z M12.579,22.986c0.543-1.415,2.131-2.122,3.546-1.581
		c1.416,0.543,2.125,2.128,1.582,3.546c-0.541,1.41-2.128,2.119-3.542,1.577C12.75,25.986,12.041,24.398,12.579,22.986z"/>
</g>
</svg>
