<svg xmlns="http://www.w3.org/2000/svg" width="35" height="35"><path fill="#64C29E" d="M33.998 16.311l-2.145-.432a.685.685 0 01-.541-.571 13.1 13.1 0 00-.211-1.072.689.689 0 01.279-.733l1.816-1.219a.682.682 0 00.25-.824l-.4-.965a.675.675 0 00-.758-.406l-2.15.422a.689.689 0 01-.715-.32 14.485 14.485 0 00-.607-.908.69.69 0 01-.023-.785l1.213-1.823a.68.68 0 00-.084-.857l-.738-.737a.683.683 0 00-.859-.086l-1.822 1.213a.685.685 0 01-.783-.022 14.119 14.119 0 00-.91-.608.684.684 0 01-.32-.715l.424-2.149a.683.683 0 00-.408-.759l-.965-.398a.678.678 0 00-.824.248l-1.219 1.817a.684.684 0 01-.732.278 14.1 14.1 0 00-1.072-.211.685.685 0 01-.572-.539L18.689 1a.683.683 0 00-.668-.546h-1.042a.681.681 0 00-.668.546l-.43 2.146a.689.689 0 01-.573.539c-.362.057-.72.127-1.072.211a.69.69 0 01-.734-.278l-1.218-1.817a.68.68 0 00-.825-.248l-.963.398a.68.68 0 00-.408.759l.422 2.149a.686.686 0 01-.32.715c-.312.192-.614.394-.907.609a.688.688 0 01-.786.022L6.673 4.992a.679.679 0 00-.857.086l-.738.737a.68.68 0 00-.085.858l1.213 1.823c.16.24.146.552-.023.785-.214.294-.417.597-.608.908a.683.683 0 01-.715.32l-2.15-.421a.678.678 0 00-.759.406l-.398.965a.679.679 0 00.249.824l1.817 1.219c.239.16.346.453.28.733a13.63 13.63 0 00-.212 1.072.684.684 0 01-.539.571L1 16.311a.68.68 0 00-.545.667v1.043c0 .324.229.604.545.668l2.147.431a.688.688 0 01.539.572c.057.361.127.72.212 1.072a.69.69 0 01-.28.733l-1.817 1.218a.68.68 0 00-.249.825l.398.964a.68.68 0 00.759.407l2.149-.423a.684.684 0 01.715.32c.191.312.394.614.608.909a.685.685 0 01.023.784l-1.213 1.822a.682.682 0 00.085.859l.738.738a.68.68 0 00.857.084l1.823-1.212a.688.688 0 01.786.021c.293.215.596.416.907.607a.689.689 0 01.32.717l-.422 2.149a.677.677 0 00.408.757l.963.4a.68.68 0 00.825-.249l1.218-1.816a.69.69 0 01.734-.28c.352.086.71.156 1.072.212a.69.69 0 01.573.541l.43 2.144a.683.683 0 00.668.549h1.042a.682.682 0 00.668-.549l.43-2.144a.687.687 0 01.572-.541c.361-.056.721-.126 1.072-.212a.688.688 0 01.732.28l1.219 1.816c.18.268.525.374.824.249l.965-.4a.68.68 0 00.408-.757l-.424-2.149a.69.69 0 01.32-.717c.313-.188.613-.393.91-.607a.68.68 0 01.783-.021l1.822 1.212c.27.179.631.145.859-.084l.738-.738a.684.684 0 00.084-.859l-1.213-1.822a.69.69 0 01.023-.784c.213-.295.416-.598.607-.909a.687.687 0 01.715-.32l2.15.423a.677.677 0 00.758-.407l.4-.964a.682.682 0 00-.25-.825l-1.816-1.218a.689.689 0 01-.279-.733c.084-.353.156-.711.211-1.072a.685.685 0 01.541-.572l2.145-.431a.682.682 0 00.547-.668v-1.043a.668.668 0 00-.541-.667zm-7.451-7.108a12.198 12.198 0 013.213 7.766h-9.277a2.997 2.997 0 00-.498-1.204l6.562-6.562zm-8.518-3.966c2.99.128 5.701 1.32 7.766 3.215l-6.561 6.562a3.028 3.028 0 00-1.205-.493V5.237zm-1.061 0v9.285a3 3 0 00-1.197.497L9.204 8.452a12.225 12.225 0 017.764-3.215zM8.453 9.203l6.568 6.567a3.002 3.002 0 00-.492 1.198H5.238c.127-2.991 1.32-5.7 3.215-7.765zm0 16.592a12.212 12.212 0 01-3.215-7.765h9.291c.079.44.247.846.492 1.198l-6.568 6.567zm8.515 3.966a12.219 12.219 0 01-7.765-3.214l6.568-6.568c.351.247.757.42 1.197.498v9.284zm.537-10.57a1.692 1.692 0 010-3.382c.935 0 1.688.757 1.688 1.69s-.754 1.692-1.688 1.692zm.524 10.57v-9.284c.443-.076.85-.245 1.205-.492l6.563 6.563a12.24 12.24 0 01-7.768 3.213zm8.518-3.966l-6.563-6.56c.248-.355.42-.763.498-1.205h9.277a12.2 12.2 0 01-3.212 7.765z"/></svg>