<svg version="1.1" id="Layer_1" xmlns="http://www.w3.org/2000/svg" xmlns:xlink="http://www.w3.org/1999/xlink" x="0px" y="0px"
	 width="35px" height="35px" viewBox="0 0 35 35" enable-background="new 0 0 35 35" xml:space="preserve">
<g>
	<path fill="#64C29E" d="M33.998,16.311l-2.145-0.432c-0.285-0.057-0.496-0.286-0.541-0.571c-0.055-0.361-0.127-0.721-0.211-1.072
		c-0.064-0.28,0.039-0.573,0.279-0.733l1.816-1.219c0.268-0.181,0.373-0.525,0.25-0.824l-0.4-0.965
		c-0.123-0.3-0.439-0.469-0.758-0.406l-2.15,0.422c-0.279,0.056-0.563-0.076-0.715-0.32c-0.191-0.312-0.395-0.614-0.607-0.908
		c-0.168-0.233-0.182-0.545-0.023-0.785l1.213-1.823c0.178-0.27,0.145-0.628-0.084-0.857l-0.738-0.737
		c-0.229-0.229-0.59-0.265-0.859-0.086l-1.822,1.213c-0.238,0.16-0.551,0.146-0.783-0.022c-0.297-0.215-0.598-0.417-0.91-0.608
		c-0.246-0.15-0.375-0.433-0.32-0.715l0.424-2.149c0.061-0.316-0.109-0.635-0.408-0.759l-0.965-0.398
		c-0.299-0.124-0.645-0.021-0.824,0.248l-1.219,1.817c-0.16,0.238-0.453,0.346-0.732,0.278c-0.352-0.084-0.711-0.154-1.072-0.211
		c-0.285-0.045-0.516-0.256-0.572-0.539L18.689,1c-0.064-0.316-0.344-0.546-0.668-0.546h-1.042c-0.325,0-0.604,0.229-0.668,0.546
		l-0.43,2.146c-0.059,0.283-0.287,0.494-0.573,0.539c-0.362,0.057-0.72,0.127-1.072,0.211c-0.28,0.067-0.572-0.04-0.734-0.278
		l-1.218-1.817c-0.181-0.269-0.526-0.372-0.825-0.248l-0.963,0.398c-0.301,0.124-0.47,0.442-0.408,0.759l0.422,2.149
		c0.055,0.282-0.075,0.564-0.32,0.715C9.878,5.766,9.576,5.968,9.283,6.183C9.048,6.352,8.738,6.365,8.497,6.205L6.673,4.992
		c-0.27-0.179-0.628-0.144-0.857,0.086L5.078,5.815C4.849,6.045,4.813,6.403,4.993,6.673l1.213,1.823
		c0.16,0.24,0.146,0.552-0.023,0.785c-0.214,0.294-0.417,0.597-0.608,0.908c-0.151,0.246-0.433,0.376-0.715,0.32L2.71,10.088
		c-0.317-0.063-0.634,0.106-0.759,0.406l-0.398,0.965c-0.124,0.299-0.02,0.644,0.249,0.824l1.817,1.219
		c0.239,0.16,0.346,0.453,0.28,0.733c-0.085,0.352-0.155,0.711-0.212,1.072c-0.045,0.285-0.256,0.515-0.539,0.571L1,16.311
		c-0.316,0.063-0.545,0.343-0.545,0.667v1.043c0,0.324,0.229,0.604,0.545,0.668l2.147,0.431c0.283,0.057,0.493,0.287,0.539,0.572
		c0.057,0.361,0.127,0.72,0.212,1.072c0.066,0.279-0.041,0.571-0.28,0.733l-1.817,1.218c-0.269,0.181-0.373,0.525-0.249,0.825
		l0.398,0.964c0.125,0.3,0.442,0.469,0.759,0.407l2.149-0.423c0.283-0.056,0.564,0.075,0.715,0.32
		c0.191,0.312,0.394,0.614,0.608,0.909c0.169,0.233,0.183,0.545,0.023,0.784l-1.213,1.822c-0.179,0.271-0.144,0.631,0.085,0.859
		l0.738,0.738c0.229,0.229,0.587,0.263,0.857,0.084l1.823-1.212c0.241-0.162,0.552-0.146,0.786,0.021
		c0.293,0.215,0.596,0.416,0.907,0.607c0.246,0.152,0.375,0.436,0.32,0.717l-0.422,2.149c-0.062,0.317,0.107,0.633,0.408,0.757
		l0.963,0.4c0.299,0.125,0.644,0.019,0.825-0.249l1.218-1.816c0.162-0.24,0.454-0.345,0.734-0.28
		c0.352,0.086,0.71,0.156,1.072,0.212c0.286,0.046,0.514,0.256,0.573,0.541l0.43,2.144c0.064,0.319,0.344,0.549,0.668,0.549h1.042
		c0.324,0,0.604-0.229,0.668-0.549l0.43-2.144c0.057-0.285,0.287-0.495,0.572-0.541c0.361-0.056,0.721-0.126,1.072-0.212
		c0.279-0.064,0.572,0.04,0.732,0.28l1.219,1.816c0.18,0.268,0.525,0.374,0.824,0.249l0.965-0.4
		c0.299-0.124,0.469-0.439,0.408-0.757l-0.424-2.149c-0.055-0.281,0.074-0.564,0.32-0.717c0.313-0.188,0.613-0.393,0.91-0.607
		c0.232-0.168,0.545-0.184,0.783-0.021l1.822,1.212c0.27,0.179,0.631,0.145,0.859-0.084l0.738-0.738
		c0.229-0.229,0.262-0.589,0.084-0.859l-1.213-1.822c-0.158-0.239-0.145-0.551,0.023-0.784c0.213-0.295,0.416-0.598,0.607-0.909
		c0.152-0.245,0.436-0.376,0.715-0.32l2.15,0.423c0.318,0.062,0.635-0.107,0.758-0.407l0.4-0.964c0.123-0.3,0.018-0.645-0.25-0.825
		l-1.816-1.218c-0.24-0.162-0.344-0.454-0.279-0.733c0.084-0.353,0.156-0.711,0.211-1.072c0.045-0.285,0.256-0.516,0.541-0.572
		l2.145-0.431c0.318-0.064,0.547-0.344,0.547-0.668v-1.043C34.545,16.653,34.316,16.374,33.998,16.311z M26.547,9.203
		c1.895,2.064,3.088,4.773,3.213,7.766h-9.277c-0.078-0.442-0.25-0.851-0.498-1.204L26.547,9.203z M18.029,5.237
		c2.99,0.128,5.701,1.32,7.766,3.215l-6.561,6.562c-0.355-0.246-0.762-0.415-1.205-0.493V5.237z M16.968,5.237v9.285
		c-0.439,0.079-0.846,0.25-1.197,0.497L9.204,8.452C11.269,6.558,13.978,5.365,16.968,5.237z M8.453,9.203l6.568,6.567
		c-0.246,0.353-0.414,0.758-0.492,1.198H5.238C5.365,13.977,6.558,11.268,8.453,9.203z M8.453,25.795
		c-1.895-2.064-3.088-4.774-3.215-7.765h9.291c0.079,0.44,0.247,0.846,0.492,1.198L8.453,25.795z M16.968,29.761
		c-2.991-0.127-5.7-1.32-7.765-3.214l6.568-6.568c0.351,0.247,0.757,0.42,1.197,0.498V29.761z M17.505,19.191
		c-0.932,0-1.689-0.759-1.689-1.692s0.757-1.69,1.689-1.69c0.935,0,1.688,0.757,1.688,1.69S18.439,19.191,17.505,19.191z
		 M18.029,29.761v-9.284c0.443-0.076,0.85-0.245,1.205-0.492l6.563,6.563C23.73,28.44,21.02,29.634,18.029,29.761z M26.547,25.795
		l-6.563-6.56c0.248-0.355,0.42-0.763,0.498-1.205h9.277C29.635,21.021,28.441,23.73,26.547,25.795z"/>
</g>
</svg>
