<?xml version="1.0" encoding="utf-8"?>
<!-- Generator: Adobe Illustrator 16.0.0, SVG Export Plug-In . SVG Version: 6.00 Build 0)  -->
<!DOCTYPE svg PUBLIC "-//W3C//DTD SVG 1.1//EN" "http://www.w3.org/Graphics/SVG/1.1/DTD/svg11.dtd">
<svg version="1.1" id="Layer_1" xmlns="http://www.w3.org/2000/svg" xmlns:xlink="http://www.w3.org/1999/xlink" x="0px" y="0px"
	 width="35px" height="35px" viewBox="0 0 35 35" enable-background="new 0 0 35 35" xml:space="preserve">
<g>
	<g id="XMLID_138_">
		<path id="XMLID_139_" fill="#78CDF0" d="M0.07,28.453c3.167,2.028,6.925,3.213,10.963,3.213c13.278,0,20.78-11.217,20.328-21.275
			c1.398-1.008,2.611-2.267,3.568-3.703c-1.281,0.57-2.659,0.955-4.105,1.125c1.475-0.882,2.61-2.284,3.145-3.955
			c-1.383,0.818-2.915,1.415-4.541,1.735c-1.306-1.391-3.164-2.259-5.221-2.259c-4.619,0-8.01,4.31-6.968,8.782
			C11.294,11.817,6.025,8.973,2.498,4.644c-1.874,3.216-0.971,7.422,2.212,9.551c-1.172-0.039-2.275-0.36-3.24-0.896
			C1.394,16.612,3.768,19.71,7.207,20.4c-1.006,0.276-2.109,0.337-3.229,0.124c0.908,2.843,3.55,4.907,6.681,4.967
			C7.652,27.849,3.865,28.901,0.07,28.453z"/>
	</g>
</g>
</svg>
