<svg version="1.1" id="Layer_1" xmlns="http://www.w3.org/2000/svg" xmlns:xlink="http://www.w3.org/1999/xlink" x="0px" y="0px"
	 width="100px" height="55px" viewBox="0 0 100 55" enable-background="new 0 0 100 55" xml:space="preserve">
<g>
	<path fill="#FFFFFF" d="M19.788,23.701c-0.017,0.259-0.03,0.52-0.03,0.781c0,6.459,5.24,11.697,11.697,11.697
		c5.865,0,10.716-4.317,11.562-9.948l2.391,0.253c0.064,1.273,0.833,2.357,1.93,2.868l-0.602,2.278H45.61v1.39h2.964v-1.39h-0.761
		l0.526-1.994c0.13,0.016,0.264,0.027,0.402,0.027c1.848,0,3.346-1.499,3.346-3.347c0-0.734-0.245-1.41-0.646-1.96L62.66,11.897
		l0.613,1.707c-3.846,2.104-6.455,6.185-6.455,10.877c0,1.721,0.354,3.358,0.986,4.846l0.633-0.28
		c1.781,4.191,5.934,7.131,10.773,7.131c6.461,0,11.695-5.237,11.695-11.697c0-5.871-4.324-10.73-9.963-11.569l0.113-0.686
		c-0.602-0.09-1.219-0.137-1.846-0.137c-1.654,0-3.232,0.327-4.676,0.916l-2.816-7.85l-0.164,0.059l-0.607-1.692
		c0.428-0.27,0.879-0.663,1.076-1.186c0.172-0.465,0.113-0.959-0.162-1.433c-0.855-1.455-5.121-0.775-6.41-0.532l0.193,1.023
		c2.541-0.479,5.027-0.46,5.318,0.037c0.156,0.266,0.121,0.437,0.082,0.542c-0.176,0.474-0.994,0.89-1.365,1.017l0,0L59.652,3
		l0.922,2.567L60.41,5.625l0.602,1.674H40.927l-0.405-0.896C42.109,5.771,44,4.634,43.726,3.871
		c-0.231-0.63-1.442-0.309-2.822-0.159c-0.595,0.063-1.616,0.07-1.95,0c-1.491-0.314-2.685-0.81-2.887-0.29
		c-0.475,1.203,1.997,3.448,2.724,3.448c0.108,0,0.244-0.016,0.397-0.046l0.75,1.661l-2.823,4.974
		c-1.697-0.873-3.62-1.368-5.66-1.368c-6.571,0-11.944,5.117-12.362,11.582l0.694,0.036C19.788,23.706,19.788,23.704,19.788,23.701z
		 M64.334,16.196l1.607,4.443l1.934,2.967c-0.168,0.25-0.264,0.552-0.264,0.876c0,0.874,0.709,1.584,1.586,1.584
		c0.873,0,1.584-0.71,1.584-1.584c0-0.876-0.711-1.586-1.584-1.586c-0.174,0-0.334,0.033-0.488,0.084l-1.859-2.857l-1.582-4.409
		c1.203-0.542,2.537-0.847,3.943-0.847c5.311,0,9.615,4.304,9.615,9.615c0,5.31-4.305,9.616-9.615,9.616s-9.613-4.306-9.613-9.616
		C59.598,20.951,61.5,17.868,64.334,16.196z M41.555,8.69H61.51l0.619,1.724L50.41,23.425c-0.106-0.061-0.213-0.122-0.323-0.172
		l0.658-2.5h1.04v-1.389H48.82v1.389h0.848l-0.589,2.233c-0.111-0.01-0.225-0.016-0.338-0.016c-0.244,0-0.483,0.028-0.712,0.079
		L41.555,8.69z M43.846,24.482c0-4.433-2.329-8.319-5.827-10.509l2.449-4.312l6.296,13.959c-0.604,0.445-1.051,1.085-1.252,1.828
		l-1.694-0.179C43.832,25.009,43.846,24.747,43.846,24.482z M41.057,24.978l-7.8-0.831c-0.064-0.358-0.238-0.683-0.482-0.936
		l3.872-6.821c2.661,1.711,4.422,4.693,4.422,8.091C41.069,24.649,41.064,24.813,41.057,24.978z M21.841,24.482
		c0-5.311,4.304-9.616,9.614-9.616c1.542,0,2.996,0.365,4.287,1.008l-3.873,6.822c-0.136-0.031-0.273-0.051-0.415-0.051
		c-1.013,0-1.836,0.821-1.836,1.836c0,1.013,0.823,1.833,1.836,1.833c0.764,0,1.419-0.467,1.694-1.13l7.797,0.827
		c-0.734,4.582-4.7,8.084-9.491,8.084C26.145,34.096,21.841,29.792,21.841,24.482z"/>
</g>
<g>
	<path fill="#FFFFFF" d="M0.979,51.64c0.82,0.42,2.081,0.84,3.381,0.84c1.4,0,2.141-0.58,2.141-1.46c0-0.84-0.641-1.32-2.261-1.9
		c-2.24-0.78-3.701-2.021-3.701-3.98c0-2.301,1.921-4.062,5.102-4.062c1.521,0,2.641,0.32,3.44,0.681l-0.68,2.46
		c-0.54-0.26-1.5-0.64-2.82-0.64s-1.961,0.6-1.961,1.3c0,0.86,0.76,1.24,2.501,1.9c2.38,0.881,3.5,2.121,3.5,4.021
		c0,2.26-1.74,4.181-5.44,4.181c-1.541,0-3.061-0.4-3.821-0.82L0.979,51.64z"/>
	<path fill="#FFFFFF" d="M14.739,41.298v5.181h5.021v-5.181h3.04V54.78h-3.04v-5.642h-5.021v5.642h-3.061V41.298H14.739z"/>
	<path fill="#FFFFFF" d="M37.802,47.898c0,4.421-2.681,7.102-6.622,7.102c-4,0-6.341-3.021-6.341-6.861
		c0-4.041,2.58-7.062,6.562-7.062C35.541,41.077,37.802,44.178,37.802,47.898z M28.06,48.079c0,2.641,1.24,4.501,3.28,4.501
		c2.061,0,3.241-1.961,3.241-4.581c0-2.421-1.16-4.501-3.261-4.501C29.26,43.498,28.06,45.458,28.06,48.079z"/>
	<path fill="#FFFFFF" d="M39.799,41.478c0.94-0.16,2.261-0.28,4.121-0.28c1.88,0,3.221,0.36,4.121,1.08
		c0.859,0.681,1.439,1.801,1.439,3.121s-0.439,2.44-1.24,3.2c-1.04,0.98-2.58,1.421-4.381,1.421c-0.399,0-0.76-0.021-1.04-0.061
		v4.821h-3.021V41.478z M42.819,47.599c0.26,0.061,0.58,0.08,1.021,0.08c1.62,0,2.62-0.82,2.62-2.2c0-1.24-0.86-1.98-2.38-1.98
		c-0.62,0-1.041,0.06-1.261,0.12V47.599z"/>
	<path fill="#FFFFFF" d="M55.458,54.78V41.298h3.561l2.801,4.94c0.8,1.421,1.601,3.101,2.2,4.621h0.061
		c-0.2-1.78-0.261-3.601-0.261-5.621v-3.94h2.801V54.78h-3.2l-2.881-5.201c-0.8-1.44-1.681-3.181-2.341-4.761l-0.06,0.02
		c0.08,1.78,0.12,3.681,0.12,5.882v4.061H55.458z"/>
	<path fill="#FFFFFF" d="M81.601,47.898c0,4.421-2.681,7.102-6.622,7.102c-4,0-6.341-3.021-6.341-6.861
		c0-4.041,2.58-7.062,6.562-7.062C79.34,41.077,81.601,44.178,81.601,47.898z M71.858,48.079c0,2.641,1.24,4.501,3.28,4.501
		c2.061,0,3.241-1.961,3.241-4.581c0-2.421-1.16-4.501-3.261-4.501C73.059,43.498,71.858,45.458,71.858,48.079z"/>
	<path fill="#FFFFFF" d="M85.639,54.78l-3.201-13.482h3.261l1.021,5.561c0.3,1.601,0.58,3.341,0.8,4.701h0.04
		c0.221-1.46,0.54-3.081,0.881-4.741l1.14-5.521h3.241l1.08,5.681c0.3,1.58,0.52,3.021,0.72,4.521h0.04
		c0.2-1.501,0.5-3.081,0.78-4.682l1.101-5.521h3.101l-3.48,13.482H92.86l-1.141-5.801c-0.26-1.36-0.48-2.621-0.64-4.161h-0.04
		c-0.24,1.521-0.461,2.801-0.78,4.161l-1.28,5.801H85.639z"/>
</g>
</svg>
