<?xml version="1.0" encoding="utf-8"?>
<!-- Generator: Adobe Illustrator 16.0.0, SVG Export Plug-In . SVG Version: 6.00 Build 0)  -->
<!DOCTYPE svg PUBLIC "-//W3C//DTD SVG 1.1//EN" "http://www.w3.org/Graphics/SVG/1.1/DTD/svg11.dtd">
<svg version="1.1" id="Layer_1" xmlns="http://www.w3.org/2000/svg" xmlns:xlink="http://www.w3.org/1999/xlink" x="0px" y="0px"
	 width="35px" height="35px" viewBox="0 0 35 35" enable-background="new 0 0 35 35" xml:space="preserve">
<g>
	<circle fill="#EB5755" cx="17.5" cy="17.5" r="17.5"/>
</g>
<g>
	<g>
		<circle fill="#FFFFFF" cx="17.5" cy="17.5" r="9.602"/>
		<g>
			<path fill="#EB5755" d="M18.275,22.682c-1.021-0.078-1.449-0.584-2.248-1.068c-0.439,2.305-0.976,4.514-2.566,5.668
				c-0.492-3.484,0.72-6.1,1.283-8.876c-0.959-1.615,0.115-4.865,2.139-4.064c2.491,0.985-2.156,6.002,0.964,6.629
				c3.256,0.654,4.586-5.648,2.567-7.699c-2.919-2.961-8.495-0.067-7.809,4.171c0.167,1.036,1.238,1.35,0.427,2.78
				c-1.867-0.414-2.424-1.886-2.353-3.849c0.116-3.214,2.888-5.465,5.669-5.776c3.518-0.394,6.819,1.292,7.274,4.6
				C24.136,18.93,22.035,22.973,18.275,22.682L18.275,22.682z"/>
		</g>
	</g>
</g>
</svg>
