<svg version="1.1" id="Layer_1" xmlns="http://www.w3.org/2000/svg" xmlns:xlink="http://www.w3.org/1999/xlink" x="0px" y="0px"
	 width="70px" height="35px" viewBox="0 0 70 35" enable-background="new 0 0 70 35" xml:space="preserve">
<path fill="#64C29E" d="M68.396,32.59l-4.341-0.875c-0.573-0.113-0.999-0.582-1.093-1.154c-0.113-0.729-0.26-1.453-0.429-2.168
	c-0.136-0.568,0.08-1.16,0.566-1.486l3.675-2.463c0.547-0.371,0.757-1.07,0.508-1.672l-0.808-1.953
	c-0.25-0.607-0.893-0.949-1.536-0.824l-4.352,0.854c-0.573,0.113-1.143-0.156-1.448-0.65c-0.385-0.631-0.795-1.24-1.23-1.84
	c-0.345-0.468-0.374-1.099-0.049-1.587l2.456-3.69c0.367-0.546,0.293-1.274-0.172-1.736L58.647,9.85
	c-0.463-0.464-1.186-0.538-1.731-0.173l-3.693,2.457c-0.484,0.321-1.116,0.296-1.588-0.047c-0.597-0.433-1.209-0.84-1.838-1.227
	c-0.498-0.307-0.764-0.88-0.649-1.451l0.854-4.349c0.126-0.643-0.214-1.286-0.82-1.536l-1.955-0.805
	c-0.606-0.253-1.303-0.042-1.669,0.503l-2.466,3.677c-0.327,0.484-0.918,0.702-1.485,0.566c-0.714-0.17-1.438-0.314-2.17-0.431
	c-0.581-0.088-1.045-0.514-1.158-1.087l-0.876-4.348c-0.128-0.639-0.694-1.105-1.349-1.105h-2.113c-0.655,0-1.217,0.464-1.348,1.105
	l-0.874,4.348c-0.116,0.573-0.582,0.999-1.159,1.087c-0.732,0.117-1.458,0.261-2.171,0.431C27.823,7.6,27.23,7.381,26.905,6.897
	L24.437,3.22c-0.366-0.545-1.062-0.756-1.668-0.503l-1.953,0.805c-0.607,0.25-0.95,0.894-0.823,1.536l0.856,4.349
	c0.112,0.57-0.154,1.144-0.65,1.451c-0.628,0.387-1.244,0.794-1.838,1.227c-0.471,0.345-1.103,0.372-1.589,0.047l-3.689-2.457
	c-0.548-0.365-1.275-0.291-1.738,0.173l-1.493,1.494c-0.463,0.462-0.536,1.19-0.173,1.736l2.456,3.69
	c0.324,0.488,0.294,1.116-0.048,1.587c-0.433,0.6-0.843,1.209-1.23,1.84c-0.302,0.5-0.874,0.764-1.445,0.65L5.062,19.99
	c-0.644-0.125-1.288,0.219-1.536,0.826l-0.81,1.953c-0.252,0.6-0.04,1.301,0.504,1.67l3.677,2.465
	c0.483,0.326,0.701,0.918,0.564,1.486c-0.171,0.713-0.314,1.438-0.429,2.17c-0.089,0.572-0.517,1.039-1.09,1.154L1.597,32.59
	c-0.641,0.129-1.105,0.699-1.105,1.346V35h29.735c0-2.635,2.135-4.777,4.773-4.777c2.634,0,4.775,2.143,4.775,4.777h29.732v-1.061
	C69.504,33.293,69.041,32.723,68.396,32.59z M26.575,33.234H10.768c0.386-5.387,2.519-10.277,5.842-14.123l11.189,11.193
	C27.225,31.184,26.799,32.164,26.575,33.234z M33.227,26.582c-1.061,0.217-2.047,0.643-2.931,1.217L19.107,16.611
	c3.844-3.324,8.734-5.455,14.116-5.842v15.813H33.227z M39.691,27.799c-0.879-0.574-1.868-1-2.929-1.217V10.769
	c5.383,0.387,10.276,2.519,14.118,5.842L39.691,27.799z M43.416,33.234c-0.223-1.07-0.647-2.051-1.225-2.932l11.194-11.191
	c3.32,3.846,5.454,8.736,5.841,14.119H43.416V33.234z"/>
</svg>
