<?xml version="1.0" encoding="utf-8"?>
<!-- Generator: Adobe Illustrator 16.0.0, SVG Export Plug-In . SVG Version: 6.00 Build 0)  -->
<!DOCTYPE svg PUBLIC "-//W3C//DTD SVG 1.1//EN" "http://www.w3.org/Graphics/SVG/1.1/DTD/svg11.dtd">
<svg version="1.1" id="Layer_1" xmlns="http://www.w3.org/2000/svg" xmlns:xlink="http://www.w3.org/1999/xlink" x="0px" y="0px"
	 width="94px" height="85px" viewBox="0 0 94 85" enable-background="new 0 0 94 85" xml:space="preserve">
<g>
	<path fill="#64C29E" d="M6.18,50.945l-1.44,5.189H0L6.18,35.92h6l6.27,20.214h-4.92l-1.56-5.189H6.18z M11.31,47.525l-1.26-4.286
		c-0.36-1.199-0.72-2.699-1.02-3.899H8.97c-0.3,1.2-0.6,2.729-0.93,3.899l-1.2,4.286H11.31z"/>
</g>
<g>
	<path fill="#64C29E" d="M56.72,10.23c0,6.629-4.02,10.649-9.93,10.649c-6,0-9.51-4.53-9.51-10.29C37.28,4.53,41.15,0,47.12,0
		C53.33,0,56.72,4.65,56.72,10.23z M42.11,10.5c0,3.96,1.859,6.75,4.92,6.75c3.09,0,4.859-2.94,4.859-6.87
		c0-3.63-1.739-6.75-4.89-6.75C43.91,3.63,42.11,6.57,42.11,10.5z"/>
</g>
<g>
	<path fill="#64C29E" d="M76.121,36.161c1.68-0.27,3.869-0.42,6.18-0.42c3.84,0,6.33,0.69,8.279,2.16c2.1,1.56,3.42,4.05,3.42,7.616
		c0,3.868-1.41,6.538-3.359,8.188c-2.131,1.77-5.369,2.609-9.33,2.609c-2.369,0-4.049-0.15-5.189-0.299V36.161z M80.711,52.654
		c0.391,0.09,1.02,0.09,1.59,0.09c4.141,0.031,6.84-2.248,6.84-7.077c0.029-4.197-2.43-6.417-6.359-6.417
		c-1.02,0-1.68,0.09-2.07,0.18V52.654z"/>
</g>
<g>
	<path fill="#64C29E" d="M49.722,50.728c-0.285-0.285-0.555-0.57-0.945-0.99c-0.869,0.811-1.844,1.155-2.954,1.155
		c-1.965,0-3.104-1.32-3.104-2.835c0-1.38,0.825-2.324,1.979-2.953V45.06c-0.524-0.658-0.84-1.394-0.84-2.112
		c0-1.23,0.885-2.49,2.565-2.49c1.26,0,2.234,0.84,2.234,2.144c0,1.064-0.615,1.903-2.22,2.697v0.045
		c0.854,0.988,1.815,2.1,2.46,2.818c0.465-0.705,0.779-1.68,0.975-2.953h1.199c-0.27,1.589-0.705,2.849-1.455,3.733
		c0.541,0.57,1.066,1.141,1.666,1.785H49.722z M48.132,48.988c-0.6-0.66-1.724-1.891-2.85-3.18c-0.54,0.344-1.305,0.989-1.305,2.055
		c0,1.154,0.855,2.039,2.07,2.039C46.918,49.902,47.651,49.513,48.132,48.988z M45.058,42.827c0,0.72,0.33,1.274,0.765,1.813
		c1.021-0.584,1.681-1.123,1.681-1.978c0-0.614-0.345-1.304-1.17-1.304C45.492,41.357,45.058,42.047,45.058,42.827z"/>
</g>
<g>
	<path fill="#64C29E" d="M40.237,75.184h-0.014l-0.791,0.428l-0.119-0.47l0.995-0.532h0.525v4.553h-0.595V75.184z"/>
	<path fill="#64C29E" d="M45.515,76.837c0,1.548-0.574,2.402-1.583,2.402c-0.889,0-1.492-0.834-1.506-2.34
		c0-1.526,0.659-2.367,1.583-2.367C44.969,74.532,45.515,75.387,45.515,76.837z M43.043,76.907c0,1.184,0.364,1.855,0.924,1.855
		c0.63,0,0.932-0.735,0.932-1.897c0-1.121-0.287-1.856-0.925-1.856C43.436,75.009,43.043,75.667,43.043,76.907z"/>
	<path fill="#64C29E" d="M49.107,76.837c0,1.548-0.574,2.402-1.583,2.402c-0.89,0-1.491-0.834-1.506-2.34
		c0-1.526,0.658-2.367,1.583-2.367C48.561,74.532,49.107,75.387,49.107,76.837z M46.634,76.907c0,1.184,0.364,1.855,0.925,1.855
		c0.63,0,0.931-0.735,0.931-1.897c0-1.121-0.287-1.856-0.924-1.856C47.027,75.009,46.634,75.667,46.634,76.907z"/>
	<path fill="#64C29E" d="M51.725,75.892c0,0.959-0.504,1.436-1.094,1.436c-0.566,0-1.057-0.455-1.064-1.373
		c0-0.91,0.498-1.422,1.1-1.422C51.305,74.532,51.725,75.022,51.725,75.892z M50.057,75.934c-0.014,0.581,0.203,1.022,0.59,1.022
		c0.406,0,0.588-0.435,0.588-1.037c0-0.553-0.162-1.016-0.588-1.016C50.26,74.903,50.057,75.359,50.057,75.934z M50.59,79.239
		l2.676-4.707h0.393l-2.676,4.707H50.59z M54.688,77.775c0,0.96-0.506,1.436-1.086,1.436c-0.568,0-1.059-0.455-1.064-1.365
		c0-0.918,0.496-1.429,1.1-1.429C54.273,76.417,54.688,76.907,54.688,77.775z M53.02,77.817c-0.006,0.581,0.217,1.022,0.596,1.022
		c0.406,0,0.588-0.435,0.588-1.036c0-0.554-0.16-1.016-0.588-1.016C53.23,76.788,53.02,77.243,53.02,77.817z"/>
</g>
<line fill="none" stroke="#64C29E" stroke-miterlimit="10" x1="7.659" y1="6.827" x2="39.234" y2="38.402"/>
<line fill="none" stroke="#64C29E" stroke-miterlimit="10" x1="86.134" y1="6.827" x2="54.603" y2="38.402"/>
<line fill="none" stroke="#64C29E" stroke-miterlimit="10" x1="7.659" y1="84.647" x2="39.234" y2="53.116"/>
<line fill="none" stroke="#64C29E" stroke-miterlimit="10" x1="86.134" y1="84.647" x2="54.603" y2="53.116"/>
</svg>
